<svg xmlns="http://www.w3.org/2000/svg"><style>:root>svg{display:none}:root>svg:target{display:block}</style><svg id="auth" viewBox="0 0 24 24" width="24" height="24"><path d="m9 17.1 5.2-5.1L9 6.9v2.5c0 .6-.5 1.1-1.1 1.1H2.3v3h5.6c.6 0 1.1.5 1.1 1.1v2.5zm7.5-5.1c0 .5-.2 1.1-.6 1.4l-5.4 5.4c-.4.4-1 .6-1.5.6-1.2 0-2.2-1-2.2-2.2v-1.6H2.3c-1.2 0-2.3-1-2.3-2.3v-3C0 9.1 1 8 2.3 8h4.5V6.7c0-1.2 1-2.2 2.2-2.2.6 0 1.1.2 1.5.6l5.4 5.4c.4.4.6 1 .6 1.5zm-.4 8.3h3.8c1 0 1.9-.8 1.9-1.9V5.6c0-1-.8-1.9-1.9-1.9h-3.8c-.6 0-1.1-.5-1.1-1.1s.5-1.1 1.1-1.1h3.8c2.3 0 4.1 1.8 4.1 4.1v12.8c0 2.3-1.8 4.1-4.1 4.1h-3.8c-.6 0-1.1-.5-1.1-1.1s.5-1.1 1.1-1.1z"/></svg><svg id="back" viewBox="0 0 24 24" width="24" height="24"><path d="M22 2.4v19.2c0 .4-.3.6-.6.2l-9.3-9.2c-.1-.1-.2-.2-.2-.3v9.3c0 .4-.3.6-.6.2l-9.2-9.2c-.3-.3-.3-.8 0-1.2l9.2-9.3c.5-.3.7-.1.7.3v9.3c0-.1.1-.2.2-.3l9.3-9.3c.2-.3.5-.1.5.3z"/></svg><svg id="bold" viewBox="0 0 16 16"><path d="M3.3 12.5c.4-.1.9-.1 1.3-.3.2-.4.2-1.1.2-1.5 0-.1 0-6.6-.1-6.9-.2-.2-1.2-.2-1.4-.2V3c1.6 0 3.2-.1 4.8-.1H9c1.5 0 3.2.7 3.2 2.5 0 1.2-.9 1.6-1.9 2.1 1.3.3 2.4 1.2 2.4 2.6 0 2.3-2.1 3.1-4.1 3.1H6.8c-1.2 0-2.4.1-3.6.2l.1-.9zm4.3-5.3C9 7.2 10 6.8 10 5.3 10 4 8.8 3.5 7.7 3.5c-.3 0-.6 0-.9.1 0 .7.1 1.4.1 2v1.6h.7zm.3 5.2c1.5 0 2.5-.6 2.5-2.2 0-.4-.1-.9-.3-1.2-.6-1-1.5-1.1-2.6-1.1-.2 0-.5 0-.7.1v2.1c0 .5-.1 1.7.1 2.1.4.1.7.2 1 .2z"/></svg><svg id="edit" viewBox="0 0 24 24" width="24" height="24"><path d="M18.41 2a1 1 0 0 0-.7.3L16 4l4 4 1.7-1.7a1 1 0 0 0 0-1.42l-2.58-2.59a1 1 0 0 0-.7-.29zM14.5 5.5 3 17v4h4L18.5 9.5l-4-4z"/></svg><svg id="eye" viewBox="0 0 24 24" width="24" height="24"><path d="M23.7 12.9c-2.5 4.1-7 6.8-11.7 6.8S2.7 17 .3 12.9c-.2-.3-.3-.6-.3-.9s.1-.6.3-.9c2.5-4 7-6.8 11.7-6.8s9.3 2.7 11.7 6.8c.2.3.3.6.3.9s-.1.6-.3.9zm-6.5-5.6a6.02 6.02 0 0 1-5.2 9 6.02 6.02 0 0 1-5.2-9C4.7 8.3 3 10 1.7 12c2.3 3.5 6 6 10.3 6s8-2.5 10.3-6c-1.3-2-3-3.7-5.1-4.7zM12 6.2c-2.2 0-4.1 1.8-4.1 4.1 0 .3.3.6.6.6s.6-.3.6-.6c0-1.5 1.3-2.8 2.8-2.8.3 0 .6-.3.6-.6s-.2-.7-.5-.7z"/></svg><svg id="eye-slash" viewBox="0 0 24 24" width="24" height="24"><path d="M17.5 4.4c-2.8 5-5.6 10.1-8.5 15.2l-.7 1.2c0 .1-.1.2-.3.2-.2 0-1.5-.8-1.8-.9-.1-.1-.2-.3-.2-.4 0-.2.5-.9.6-1.2C4 17.3 1.8 15.3.3 12.9c-.2-.2-.3-.6-.3-.9 0-.3.1-.7.3-.9C2.9 7 7.1 4.3 12 4.3c.8 0 1.6.1 2.4.2l.7-1.3c.1-.1.2-.2.4-.2s1.5.8 1.8.9c.1.1.2.2.2.4v.1zm-9 10.7A5.8 5.8 0 0 1 6 10.3c0-1.1.3-2.1.8-3C4.7 8.3 3 10 1.7 12c1.4 2.2 3.4 4 5.7 5l1.1-1.9zM12 6.2c-2.2 0-4.1 1.8-4.1 4.1 0 .3.3.6.6.6s.6-.3.6-.6c0-1.5 1.3-2.8 2.8-2.8.3 0 .6-.3.6-.6.1-.4-.2-.7-.5-.7zm11.7 6.7c-.4.7-.9 1.3-1.5 1.9-2.6 3-6.2 4.8-10.3 4.8l1-1.8c3.9-.3 7.2-2.7 9.3-5.9-1-1.5-2.3-2.9-3.8-3.9l.8-1.5c1.7 1.1 3.3 2.8 4.4 4.5.2.3.3.6.3.9s0 .7-.2 1zm-9.6 3 3.7-6.7c.2.3.2.7.2 1.1 0 2.5-1.5 4.7-3.9 5.6z"/></svg><svg id="italic" viewBox="0 0 16 16"><path d="M4.7 12.6c.4-.1.9-.2 1.3-.4.2-.2.2-.4.3-.7.1-.5 1.5-7 1.5-7.6v-.1c-.4-.2-.8-.2-1.2-.3l.1-.7c.9.1 1.7.2 2.6.2.7 0 1.4-.1 2.1-.1 0 .2-.1.4-.1.6-.5.2-1 .2-1.4.4-.2.3-.2.7-.3 1.1-.3 1.7-.8 3.5-1.1 5.2-.1.3-.4 1.7-.4 1.9v.1c.4.1.8.1 1.2.2 0 .2-.1.4-.1.7h-.4c-.4 0-.8-.1-1.2-.1H6.2c-.6 0-1.2.1-1.8.1l.3-.5z"/></svg></svg>