<svg xmlns="http://www.w3.org/2000/svg"><style>:root>svg{display:none}:root>svg:target{display:block}</style><svg id="auth" viewBox="0 0 24 24" width="24" height="24"><path d="m9 17.1 5.2-5.1L9 6.9v2.5c0 .6-.5 1.1-1.1 1.1H2.3v3h5.6c.6 0 1.1.5 1.1 1.1v2.5zm7.5-5.1c0 .5-.2 1.1-.6 1.4l-5.4 5.4c-.4.4-1 .6-1.5.6-1.2 0-2.2-1-2.2-2.2v-1.6H2.3c-1.2 0-2.3-1-2.3-2.3v-3C0 9.1 1 8 2.3 8h4.5V6.7c0-1.2 1-2.2 2.2-2.2.6 0 1.1.2 1.5.6l5.4 5.4c.4.4.6 1 .6 1.5zm-.4 8.3h3.8c1 0 1.9-.8 1.9-1.9V5.6c0-1-.8-1.9-1.9-1.9h-3.8c-.6 0-1.1-.5-1.1-1.1s.5-1.1 1.1-1.1h3.8c2.3 0 4.1 1.8 4.1 4.1v12.8c0 2.3-1.8 4.1-4.1 4.1h-3.8c-.6 0-1.1-.5-1.1-1.1s.5-1.1 1.1-1.1z"/></svg><svg id="back" viewBox="0 0 24 24" width="24" height="24"><path d="M22 2.4v19.2c0 .4-.3.6-.6.2l-9.3-9.2c-.1-.1-.2-.2-.2-.3v9.3c0 .4-.3.6-.6.2l-9.2-9.2c-.3-.3-.3-.8 0-1.2l9.2-9.3c.5-.3.7-.1.7.3v9.3c0-.1.1-.2.2-.3l9.3-9.3c.2-.3.5-.1.5.3z"/></svg><svg id="close" viewBox="0 0 24 24" width="24" height="24"><path d="m21.5 19.2-2.3 2.3c-.3.3-.7.5-1.1.5-.4 0-.8-.2-1.1-.5l-5-5-5 5c-.3.3-.7.5-1.1.5-.4 0-.8-.2-1.1-.5l-2.3-2.3c-.3-.3-.5-.7-.5-1.1s.2-.8.5-1.1l4.9-5-4.9-5c-.3-.3-.5-.7-.5-1.1 0-.4.2-.8.5-1.1l2.3-2.3c.3-.3.7-.5 1.1-.5.4 0 .8.2 1.1.5l5 5 5-5c.3-.3.7-.5 1.1-.5.4 0 .8.2 1.1.5l2.3 2.3c.3.3.5.7.5 1.1 0 .4-.2.8-.5 1.1l-4.9 5 4.9 5c.3.3.5.7.5 1.1s-.2.8-.5 1.1z"/></svg><svg id="edit" viewBox="0 0 24 24" width="24" height="24"><path d="M18.41 2a1 1 0 0 0-.7.3L16 4l4 4 1.7-1.7a1 1 0 0 0 0-1.42l-2.58-2.59a1 1 0 0 0-.7-.29zM14.5 5.5 3 17v4h4L18.5 9.5l-4-4z"/></svg><svg id="eye" viewBox="0 0 24 24" width="24" height="24"><path d="M23.7 12.9c-2.5 4.1-7 6.8-11.7 6.8S2.7 17 .3 12.9c-.2-.3-.3-.6-.3-.9s.1-.6.3-.9c2.5-4 7-6.8 11.7-6.8s9.3 2.7 11.7 6.8c.2.3.3.6.3.9s-.1.6-.3.9zm-6.5-5.6a6.02 6.02 0 0 1-5.2 9 6.02 6.02 0 0 1-5.2-9C4.7 8.3 3 10 1.7 12c2.3 3.5 6 6 10.3 6s8-2.5 10.3-6c-1.3-2-3-3.7-5.1-4.7zM12 6.2c-2.2 0-4.1 1.8-4.1 4.1 0 .3.3.6.6.6s.6-.3.6-.6c0-1.5 1.3-2.8 2.8-2.8.3 0 .6-.3.6-.6s-.2-.7-.5-.7z"/></svg><svg id="eye-slash" viewBox="0 0 24 24" width="24" height="24"><path d="M17.5 4.4c-2.8 5-5.6 10.1-8.5 15.2l-.7 1.2c0 .1-.1.2-.3.2-.2 0-1.5-.8-1.8-.9-.1-.1-.2-.3-.2-.4 0-.2.5-.9.6-1.2C4 17.3 1.8 15.3.3 12.9c-.2-.2-.3-.6-.3-.9 0-.3.1-.7.3-.9C2.9 7 7.1 4.3 12 4.3c.8 0 1.6.1 2.4.2l.7-1.3c.1-.1.2-.2.4-.2s1.5.8 1.8.9c.1.1.2.2.2.4v.1zm-9 10.7A5.8 5.8 0 0 1 6 10.3c0-1.1.3-2.1.8-3C4.7 8.3 3 10 1.7 12c1.4 2.2 3.4 4 5.7 5l1.1-1.9zM12 6.2c-2.2 0-4.1 1.8-4.1 4.1 0 .3.3.6.6.6s.6-.3.6-.6c0-1.5 1.3-2.8 2.8-2.8.3 0 .6-.3.6-.6.1-.4-.2-.7-.5-.7zm11.7 6.7c-.4.7-.9 1.3-1.5 1.9-2.6 3-6.2 4.8-10.3 4.8l1-1.8c3.9-.3 7.2-2.7 9.3-5.9-1-1.5-2.3-2.9-3.8-3.9l.8-1.5c1.7 1.1 3.3 2.8 4.4 4.5.2.3.3.6.3.9s0 .7-.2 1zm-9.6 3 3.7-6.7c.2.3.2.7.2 1.1 0 2.5-1.5 4.7-3.9 5.6z"/></svg><svg id="aromachef" viewBox="0 0 24 24" width="24" height="24"><path d="M20 11.9h-2c0-1.5-1.3-2.6-3-2.6H5c-1.7 0-3 1.2-3 2.6v2.6c0 .5.4.9 1 .9s1-.4 1-.9v-2.6c0-.5.4-.9 1-.9h10c.6 0 1 .4 1 .9v3.5c0 2.2-1.8 4-4.2 4.4-.5.1-.9.5-.8 1 .1.5.6.8 1.2.7a7.2 7.2 0 0 0 5.2-3.4H20c2.3 0 4-1.3 4-3.1s-1.7-3.1-4-3.1zm0 4.4h-2.1l.1-.9v-1.8h2c.7 0 2 .3 2 1.3 0 .9-1 1.4-2 1.4z"/><path d="M5.1 21.6h.7c1.3-.1 3.8-.7 4.1-3.4.1-.6-.5-1.1-1.2-.9A4.3 4.3 0 0 0 5.5 20a5.4 5.4 0 0 0-4.4-3.7 1 1 0 0 0-1.1.9c.3 3.6 3.6 4.3 5.1 4.4zm13.9.9H1c-.6 0-1 .4-1 .9s.4.9 1 .9h18c.6 0 1-.4 1-.9s-.4-.9-1-.9zM10.4 6.1c.7 0 1.3-.3 1.7-.7 1-1 1-2.5 0-3.5L10.4 0 8.7 1.8c-1 1-1 2.5 0 3.5.4.5 1.1.8 1.7.8z"/></svg><svg id="paste" viewBox="0 0 24 24" width="24" height="24"><path d="M24 22.7c0 .7-.6 1.3-1.3 1.3H9.9c-.7 0-1.3-.6-1.3-1.3v-2.1H1.3C.6 20.6 0 20 0 19.3v-18C0 .6.6 0 1.3 0h14.6c.7 0 1.3.6 1.3 1.3v4.4l.5.4 5.5 5.5c.4.4.8 1.4.8 2.1v9zM13.7 2.1c0-.2-.2-.4-.4-.4H3.9c-.2 0-.4.2-.4.4V3c0 .2.2.4.4.4h9.4c.2 0 .4-.2.4-.4v-.9zm8.6 20.2v-8.6h-5.6c-.7 0-1.3-.6-1.3-1.3V6.9h-5.1v15.4h12zM21.1 12l-4-4v4h4z"/></svg><svg id="plus" viewBox="0 0 24 24" width="24" height="24"><path d="M24 13.6c0 .9-.7 1.6-1.6 1.6h-7.1v7.1c0 .9-.7 1.6-1.6 1.6h-3.3c-.9 0-1.6-.7-1.6-1.6v-7.1H1.6c-.9 0-1.6-.7-1.6-1.6v-3.3c0-.9.7-1.6 1.6-1.6h7.1V1.6c0-.9.8-1.6 1.7-1.6h3.3c.9 0 1.6.7 1.6 1.6v7.1h7.1c.9 0 1.6.7 1.6 1.6v3.3z"/></svg><svg id="sort" viewBox="0 0 24 24" width="24" height="24"><path d="M19.6 9.8H4.4c-.6 0-1.1-.5-1.1-1.1 0-.3.1-.6.3-.8L11.2.3c.2-.2.5-.3.8-.3s.6.1.8.3L20.4 8c.2.2.3.5.3.8 0 .5-.5 1-1.1 1zm.8 6.2-7.6 7.6c-.2.3-.5.4-.8.4s-.6-.1-.8-.3L3.6 16c-.2-.2-.3-.5-.3-.8 0-.6.5-1.1 1.1-1.1h15.3c.6 0 1.1.5 1.1 1.1l-.4.8z"/></svg></svg>