<svg version="1.0" xmlns="http://www.w3.org/2000/svg" width="933.33" height="933.33" viewBox="0 0 700 700" preserveAspectRatio="xMidYMid meet"><g transform="matrix(.1 0 0 -.1 0 700)" fill="#000000" stroke="none"><path d="M3335 6993c-57-6-230-45-290-65-114-38-349-155-375-188-3-3-32-27-66-52-244-186-455-538-495-826-6-42-12-78-14-80-1-1-24 2-51 8-64 15-79 18-144 30-104 18-135 21-285 25-286 7-513-38-729-145-128-63-145-73-236-142-339-255-588-722-635-1188-7-72-7-312 0-375 23-206 49-324 104-471 95-259 259-486 474-656 51-40 101-79 112-85 204-128 355-195 600-269 44-14 90-26 103-29 13-2 55-11 95-20l72-16V0h1912c1052 0 1913 3 1914 8 2 16 12 1024 22 2254 2 142 5 188 15 189 6 1 15 2 20 3 7 2 78 17 97 21 74 16 210 55 290 82 94 33 120 44 250 104 71 32 217 122 289 177 69 52 215 195 268 262 56 72 123 179 168 270 39 80 103 255 114 310 2 14 11 57 19 95 9 39 18 97 22 130s9 74 11 90c5 38 5 330-1 370-2 17-7 55-10 85-4 30-9 63-12 75-2 11-6 34-9 50-8 48-34 135-61 205-47 122-57 145-109 247-146 286-367 518-623 652-90 47-267 113-336 125-47 9-75 15-93 20-43 12-160 20-297 20-197 0-301-11-463-50-35-9-66-13-70-10-3 3-7 23-9 44-10 107-63 281-125 410-131 273-366 504-649 636-191 89-358 124-592 123-89-1-175-3-192-4z"/></g></svg>